<svg xmlns="http://www.w3.org/2000/svg" viewBox="0 0 274.75 215.67"><defs><style>.cls-1,.cls-4{fill:#fff;}.cls-2,.cls-5{fill:none;stroke:#fff;stroke-miterlimit:22.93;stroke-width:3.97px;}.cls-3{fill:#feca17;}.cls-4,.cls-5{fill-rule:evenodd;}.cls-6{fill:#009e55;}.cls-7{fill:#f5c81c;}</style></defs><g id="Camada_2" data-name="Camada 2"><g id="Camada_1-2" data-name="Camada 1"><rect class="cls-1" x="1.98" y="1.98" width="270.78" height="211.7" rx="24.62"/><rect class="cls-2" x="1.98" y="1.98" width="270.78" height="211.7" rx="24.62"/><rect class="cls-3" x="9.09" y="7.54" width="256.58" height="200.6" rx="20.49"/><rect class="cls-2" x="9.09" y="7.54" width="256.58" height="200.6" rx="20.49"/><rect class="cls-3" x="13.66" y="11.11" width="247.43" height="193.45" rx="18.97"/><rect class="cls-2" x="13.66" y="11.11" width="247.43" height="193.45" rx="18.97"/><path class="cls-4" d="M135.15,16.27l-83,46.27c-5.64,4.1-9.36,7.71-9,17.65l.38,99.62c.43,7.43,5.45,10.61,12.76,11.08l78.9-.27L135,166.68l-59.26-.23c-4.31,0-5.38-1.53-5.4-4.79V138.54c-.1-4,2.27-6.31,6.6-6.45l58.57.23-.16-24.69H76.79c-4.88.29-7.46-1.7-7.32-6.32V82.74c-.09-2.47.93-4.37,3.56-5.76L135.2,44.72Z"/><path class="cls-5" d="M135.15,16.27l-83,46.27c-5.64,4.1-9.36,7.71-9,17.65l.38,99.62c.43,7.43,5.45,10.61,12.76,11.08l78.9-.27L135,166.68l-59.26-.23c-4.31,0-5.38-1.53-5.4-4.79V138.54c-.1-4,2.27-6.31,6.6-6.45l58.57.23-.16-24.69H76.79c-4.88.29-7.46-1.7-7.32-6.32V82.74c-.09-2.47.93-4.37,3.56-5.76L135.2,44.72Z"/><path class="cls-4" d="M85.17,100.79l57.74.13.14,49.42h24.69l.65-49.53h47l-1.06-9.55L161.44,48.6c-3.68-2.14-8.5-2.06-12.75,0L84.46,81.1c-2.51,1.35-3.77,3.12-3.79,5.29l0,10.86C80.79,100,82.75,101.16,85.17,100.79Z"/><path class="cls-5" d="M85.17,100.79l57.74.13.14,49.42h24.69l.65-49.53h47l-1.06-9.55L161.44,48.6c-3.68-2.14-8.5-2.06-12.75,0L84.46,81.1c-2.51,1.35-3.77,3.12-3.79,5.29l0,10.86C80.79,100,82.75,101.16,85.17,100.79Z"/><path class="cls-4" d="M226,100.79l-57.75.13.35,59.64H142.91l-.15-59.75H95.81l1-9.55L149.7,48.6c3.69-2.14,8.5-2.06,12.75,0L226.69,81.1c2.5,1.35,3.76,3.12,3.79,5.29l0,10.86C230.36,100,228.4,101.16,226,100.79Z"/><path class="cls-5" d="M226,100.79l-57.75.13.35,59.64H142.91l-.15-59.75H95.81l1-9.55L149.7,48.6c3.69-2.14,8.5-2.06,12.75,0L226.69,81.1c2.5,1.35,3.76,3.12,3.79,5.29l0,10.86C230.36,100,228.4,101.16,226,100.79Z"/><rect class="cls-6" x="1.98" y="1.98" width="270.78" height="211.7" rx="24.62"/><rect class="cls-7" x="9.09" y="7.54" width="256.58" height="200.6" rx="20.49"/><rect class="cls-6" x="13.66" y="11.11" width="247.43" height="193.45" rx="18.97"/><path class="cls-4" d="M135.15,16.27l-83,46.27c-5.64,4.1-9.36,7.71-9,17.65l.38,99.62c.43,7.43,5.45,10.61,12.76,11.08l78.9-.27L135,166.68l-59.26-.23c-4.31,0-5.38-1.53-5.4-4.79V138.54c-.1-4,2.27-6.31,6.6-6.45l58.57.23-.16-24.69H76.79c-4.88.29-7.46-1.7-7.32-6.32V82.74c-.09-2.47.93-4.37,3.56-5.76L135.2,44.72Z"/><path class="cls-4" d="M85.17,100.79l57.74.13.14,49.42h24.69l.65-49.53h47l-1.06-9.55L161.44,48.6c-3.68-2.14-8.5-2.06-12.75,0L84.46,81.1c-2.51,1.35-3.77,3.12-3.79,5.29l0,10.86C80.79,100,82.75,101.16,85.17,100.79Z"/><path class="cls-4" d="M226,100.79l-57.75.13.35,59.64H142.91l-.15-59.75H95.81l1-9.55L149.7,48.6c3.69-2.14,8.5-2.06,12.75,0L226.69,81.1c2.5,1.35,3.76,3.12,3.79,5.29l0,10.86C230.36,100,228.4,101.16,226,100.79Z"/></g></g></svg>